<?xml version="1.0" encoding="utf-8"?>
<!-- Generator: Adobe Illustrator 27.8.0, SVG Export Plug-In . SVG Version: 6.00 Build 0)  -->
<svg version="1.1" id="Layer_1" xmlns="http://www.w3.org/2000/svg" xmlns:xlink="http://www.w3.org/1999/xlink" x="0px" y="0px"
	 viewBox="0 0 32 32" style="enable-background:new 0 0 32 32;" xml:space="preserve">
<style type="text/css">
	.st0{opacity:0.6;}
	.st1{fill:#7F7F7F;}
</style>
<g class="st0">
	<path class="st1" d="M16.01,2.01c4.76,0.22,8.44,2.26,10.62,6.51c2.18,4.23,1.9,8.5-0.99,12.27c-2.22,2.9-4.84,5.5-7.39,8.13
		c-1.38,1.42-3.15,1.41-4.52,0c-2.5-2.59-5.06-5.17-7.28-8c-2.94-3.75-3.29-8.01-1.17-12.26C7.44,4.35,11.15,2.22,16.01,2.01z
		 M16.07,10.42c-1.8-0.05-3.5,1.54-3.57,3.35c-0.08,1.85,1.63,3.59,3.52,3.58c1.82-0.01,3.46-1.63,3.48-3.44
		C19.52,12.12,17.9,10.47,16.07,10.42z"/>
</g>
</svg>